<svg width="32" height="32" viewBox="0 0 32 32" fill="none" xmlns="http://www.w3.org/2000/svg">
  <rect width="32" height="32" rx="6" fill="url(#paint0_linear)"/>
  <path d="M16 6c-4 0-8 2-8 8v6c0 4 4 8 8 8s8-4 8-8v-6c0-6-4-8-8-8z" fill="white" fill-opacity="0.1"/>
  <path d="M16 6c-4 0-8 2-8 8v6c0 4 4 8 8 8s8-4 8-8v-6c0-6-4-8-8-8z" stroke="white" stroke-width="2"/>
  <path d="M12 14h8v2h-8v-2zm0 4h6v2h-6v-2z" fill="white"/>
  <circle cx="16" cy="12" r="2" fill="white"/>
  <defs>
    <linearGradient id="paint0_linear" x1="0" y1="0" x2="32" y2="32" gradientUnits="userSpaceOnUse">
      <stop stop-color="#7c5cff"/>
      <stop offset="1" stop-color="#6b54f2"/>
    </linearGradient>
  </defs>
</svg>
